<svg width="256" height="32" viewBox="0 0 256 32" fill="none" xmlns="http://www.w3.org/2000/svg">
<g clip-path="url(#clip0_33_5954)">
<path d="M241.142 27.1948C237.346 27.1948 234.556 25.5618 234.556 22.4864C234.556 21.7673 234.743 20.9487 235.113 20.2296L235.818 18.7916H241.847L240.472 22.0272C240.102 23.0105 240.432 23.5303 241.364 23.5303C242.813 23.5303 243.523 22.2221 243.637 20.9487C243.637 19.5756 243.114 18.8869 242.034 16.4699L241.625 15.5559C240.659 13.4291 239.915 11.6965 239.915 9.60438C239.915 5.45043 243.824 2.60461 249.518 2.60461C253.019 2.60461 255.809 4.37188 255.809 7.18305C255.809 7.93674 255.622 8.72075 255.286 9.56973L254.616 11.3023H248.473L250.036 7.50792C250.258 6.8885 250.075 6.26476 249.07 6.26476C247.541 6.26476 246.91 7.40829 246.762 8.84636C246.762 10.1198 247.359 11.8221 248.103 13.2948L248.552 14.1785C249.484 16.041 250.489 18.3627 250.489 20.0001C250.485 24.3793 246.575 27.1948 241.142 27.1948ZM206.528 26.9002L205.636 18.9865H205.227L202.175 26.9002H195.475L205.71 2.89915H212.484L208.54 10.9775H209.062L215.166 2.89915H222.162L211.256 16.5955L212.859 26.8959H206.528V26.9002ZM105.438 27.1948C98.7036 27.1948 97.5105 21.7024 100.375 15.2917L101.307 13.1995C103.875 7.44295 107.671 2.60461 113.666 2.60461C120.401 2.60461 121.372 8.13166 118.69 14.4773L117.798 16.6041C115.338 22.4171 111.394 27.1948 105.438 27.1948ZM112.956 6.39471C112.025 6.39471 111.394 6.88417 110.984 7.83278L105.068 21.6677C104.92 22.0619 104.881 22.2221 104.881 22.4214C104.881 22.8805 105.33 23.2401 106.148 23.2401C107.08 23.2401 107.75 22.7809 108.159 21.802L114.002 8.03636C114.115 7.80679 114.223 7.44727 114.223 7.25235C114.223 6.78888 113.775 6.39471 112.956 6.39471ZM222.98 27.1948C217.547 27.1948 215.052 23.9894 217.064 19.2161L223.986 2.89915H230.799L222.61 22.1269C222.275 22.9109 222.61 23.4003 223.576 23.4003C224.434 23.4003 224.878 23.0062 225.287 22.0272L233.476 2.89482H240.215L232.549 20.9443C231.657 23.0711 230.39 24.6738 228.866 25.6874C227.373 26.6706 225.401 27.1948 222.98 27.1948ZM167.522 26.9002L177.722 2.89915H183.564C189.258 2.89915 192.31 6.52899 190.412 11.5319L190.19 12.121C188.406 16.7991 183.786 18.562 177.87 18.562L174.296 26.9002H167.522ZM179.433 14.7979L179.62 14.7632C181.257 14.7632 182.485 14.3387 183.121 12.866L184.57 9.43112C185.275 7.7938 185.127 6.71524 183.081 6.71524H182.894L179.433 14.7979ZM185.798 26.9002L195.998 2.89915H202.772L192.571 26.9002H185.798ZM158.885 26.9002L163.834 15.9111H163.238L156.498 26.9002H151.918L154.635 15.9111H154.112L149.606 26.9002H144.06L154.221 2.89915H161.256L158.426 15.6858H158.949L166.99 2.89915H174.769L164.534 26.9002H158.885ZM130.561 26.9002L134.21 18.2674L136.369 2.89915H142.62L140.461 11.402H140.796L145.746 2.89915H152.406L141.388 18.3671L137.779 26.9002H130.561ZM115.786 26.9002L126.021 2.89915H132.795L124.31 22.8112H129.669L127.958 26.9002H115.786Z" fill="white"/>
<path d="M0.984375 17.4287C0.984375 22.8236 10.0093 27.195 21.0323 27.195C28.9119 27.195 35.8384 24.974 39.17 21.7504C39.3163 21.6095 39.5044 21.5349 39.705 21.5474C41.3269 21.6385 43.5884 21.6385 45.2061 21.5474C45.4068 21.5349 45.599 21.6095 45.7412 21.7504C49.0727 24.9782 55.9992 27.195 63.8788 27.195C74.9018 27.195 83.9268 22.8236 83.9268 17.4287C83.9268 10.2729 70.4416 6.8006 60.9443 7.60031C60.7312 7.61689 60.5263 7.53815 60.3759 7.38484C57.1153 4.02859 50.3937 1.62122 42.4556 1.62122C34.5509 1.62122 27.6997 4.02859 24.4308 7.38484C24.2803 7.53815 24.0755 7.61689 23.8623 7.60031C14.5615 6.79233 0.984375 10.248 0.984375 17.4287ZM5.0851 17.4287C5.0851 12.7175 14.5907 10.8737 21.0323 10.8737C26.5209 10.8737 35.4288 12.3612 37.0506 16.1193C37.2638 16.6083 37.6944 16.9729 38.2253 17.0392C38.9484 17.1345 39.7259 17.2091 40.4115 17.2381C40.8922 17.2588 41.2517 16.8072 41.1347 16.3431C40.2108 12.6098 35.1905 9.77979 29.4553 8.42486C29.1502 8.35028 29.0833 7.94007 29.355 7.77847C32.6615 5.82273 38.2002 4.99818 42.4556 4.99818C47.9566 4.99818 58.4363 6.81303 58.4363 11.6899C58.5157 14.1719 55.5185 16.4757 49.913 17.6856C49.357 17.8058 49.1396 18.4894 49.5451 18.8831C50.0216 19.3471 50.6278 19.8071 51.2255 20.1676C51.5516 20.3623 51.9445 20.4245 52.3165 20.3416C58.453 18.9452 62.7962 15.0337 62.5453 11.6858C62.5119 11.259 62.8338 10.9068 63.2685 10.911C73.2549 11.0063 79.8302 13.5338 79.8302 17.4287C79.8302 21.8001 70.3246 23.644 63.883 23.644C57.6128 23.644 48.5544 21.97 47.6599 18.0792C47.1123 14.694 51.585 12.4109 56.6054 11.5615C57.1195 11.4745 57.3829 10.882 57.0777 10.4635C56.7224 9.97868 56.2459 9.51046 55.7233 9.15412C55.4224 8.94694 55.0462 8.86822 54.6867 8.92623C49.8837 9.69693 43.5048 13.0614 43.6887 17.7229C43.7054 18.129 43.3961 18.4729 42.9865 18.477C37.1677 18.5557 28.7489 16.9232 26.8553 13.2147C26.6254 12.7631 26.1948 12.4358 25.689 12.3695C24.9157 12.2659 24.0838 12.1954 23.3105 12.1623C22.8173 12.1416 22.4494 12.6015 22.5832 13.0697C23.6867 16.9481 28.7865 19.5377 33.7943 20.6772C34.1162 20.7518 34.1664 21.191 33.8654 21.3319C30.4377 22.9271 25.1456 23.644 21.0365 23.644C14.5907 23.644 5.0851 21.8001 5.0851 17.4287Z" fill="white"/>
</g>
<defs>
<clipPath id="clip0_33_5954">
<rect width="256" height="27" fill="white" transform="translate(0 0.900024)"/>
</clipPath>
</defs>
</svg>
